<svg width="30" height="31" viewBox="0 0 30 31" fill="none" xmlns="http://www.w3.org/2000/svg">
<path d="M25.2228 8.16327C25.3054 8.1908 25.394 8.19478 25.4787 8.17477C25.5635 8.15476 25.6409 8.11155 25.7025 8.04998L28.9252 4.82732C28.9867 4.76577 29.0299 4.68831 29.0499 4.6036C29.0699 4.51889 29.0659 4.43028 29.0384 4.3477C29.0109 4.26513 28.9609 4.19184 28.8941 4.13605C28.8273 4.08027 28.7463 4.04419 28.6601 4.03185L26.9572 3.78852L26.7141 2.08579C26.7017 1.99963 26.6656 1.9186 26.6099 1.85179C26.5541 1.78498 26.4808 1.73502 26.3982 1.70751C26.3156 1.67999 26.227 1.67602 26.1423 1.69602C26.0576 1.71602 25.9801 1.75921 25.9186 1.82076L22.6959 5.04342C22.6344 5.10497 22.5912 5.18247 22.5712 5.2672C22.5512 5.35194 22.5553 5.44056 22.5829 5.52313L23.0771 7.00593L22.1995 7.88352C19.7656 5.62333 16.5419 4.40866 13.2217 4.50077C9.9015 4.59289 6.75008 5.98443 4.44526 8.3761C2.14045 10.7678 0.866379 13.9685 0.897088 17.2898C0.927797 20.6112 2.26083 23.7878 4.60948 26.1364C6.95812 28.4851 10.1347 29.8181 13.4561 29.8488C16.7774 29.8795 19.9781 28.6055 22.3698 26.3006C24.7615 23.9958 26.153 20.8444 26.2451 17.5242C26.3373 14.204 25.1226 10.9803 22.8624 8.54638L23.7398 7.66898L25.2228 8.16327ZM25.3125 17.1522C25.3165 19.8481 24.3922 22.4631 22.6951 24.5578C20.998 26.6525 18.6315 28.099 15.9934 28.6542C13.3553 29.2095 10.6065 28.8396 8.20902 27.6067C5.81155 26.3739 3.9116 24.3532 2.82857 21.8844C1.74554 19.4157 1.54545 16.6493 2.26194 14.0504C2.97843 11.4514 4.56781 9.17838 6.76292 7.61334C8.95802 6.0483 11.625 5.28669 14.3155 5.45652C17.0061 5.62635 19.5561 6.71728 21.537 8.54592L19.5412 10.5418C17.8091 8.98245 15.5365 8.1611 13.2077 8.25276C10.8788 8.34441 8.67781 9.34182 7.07357 11.0325C5.46934 12.7232 4.58868 14.9734 4.61924 17.3039C4.6498 19.6343 5.58915 21.8607 7.23717 23.5087C8.88519 25.1568 11.1116 26.0961 13.442 26.1267C15.7725 26.1572 18.0228 25.2766 19.7134 23.6723C21.4041 22.0681 22.4015 19.8671 22.4932 17.5382C22.5848 15.2094 21.7635 12.9368 20.2041 11.2047L22.2 9.20892C24.2026 11.3691 25.3144 14.2065 25.3125 17.1522ZM13.2623 17.4836C13.3058 17.5271 13.3575 17.5617 13.4144 17.5852C13.4712 17.6088 13.5322 17.6209 13.5937 17.6209C13.6553 17.6209 13.7162 17.6088 13.7731 17.5852C13.83 17.5617 13.8816 17.5271 13.9252 17.4836L15.8836 15.5251C16.2939 16.1015 16.4725 16.8111 16.3842 17.5131C16.2958 18.215 15.947 18.8582 15.4067 19.315C14.8665 19.7719 14.1743 20.0091 13.4674 19.9795C12.7605 19.95 12.0905 19.656 11.5902 19.1557C11.0899 18.6554 10.7959 17.9854 10.7664 17.2785C10.7369 16.5716 10.974 15.8794 11.4309 15.3392C11.8877 14.7989 12.5309 14.4501 13.2329 14.3617C13.9348 14.2734 14.6444 14.4521 15.2208 14.8623L13.2623 16.8208C13.2188 16.8643 13.1842 16.9159 13.1607 16.9728C13.1371 17.0297 13.125 17.0906 13.125 17.1522C13.125 17.2137 13.1371 17.2747 13.1607 17.3315C13.1842 17.3884 13.2188 17.4401 13.2623 17.4836ZM15.8895 14.1936C15.1335 13.6062 14.182 13.3291 13.2289 13.4186C12.2757 13.5082 11.3925 13.9576 10.7591 14.6755C10.1257 15.3934 9.78975 16.3257 9.81964 17.2826C9.84952 18.2395 10.243 19.149 10.92 19.826C11.5969 20.5029 12.5064 20.8964 13.4633 20.9263C14.4202 20.9562 15.3525 20.6202 16.0704 19.9868C16.7883 19.3534 17.2378 18.4702 17.3273 17.517C17.4168 16.5639 17.1397 15.6124 16.5523 14.8564L19.5415 11.8672C20.9241 13.4223 21.6463 15.4548 21.5548 17.5336C21.4634 19.6123 20.5654 21.5736 19.0516 23.0012C17.5378 24.4288 15.5272 25.2102 13.4467 25.1797C11.3662 25.1492 9.3794 24.3092 7.90807 22.8378C6.43675 21.3665 5.59669 19.3797 5.5662 17.2992C5.5357 15.2187 6.31716 13.2081 7.74472 11.6943C9.17228 10.1805 11.1336 9.28256 13.2123 9.19109C15.2911 9.09962 17.3237 9.82181 18.8787 11.2044L15.8895 14.1936ZM25.9186 3.14643L26.0788 4.26932C26.0932 4.36969 26.1397 4.4627 26.2115 4.53437C26.2832 4.60605 26.3762 4.65254 26.4766 4.66687L27.5995 4.82732L25.2443 7.18232L23.9841 6.76209L23.5638 5.50115L25.9186 3.14643Z" fill="#1D4A2D"/>
</svg>
