<svg width="31" height="29" viewBox="0 0 31 29" fill="none" xmlns="http://www.w3.org/2000/svg">
<g clip-path="url(#clip0_201_294)">
<path d="M24.1762 2.19828C24.1532 2.14101 24.1185 2.08919 24.0742 2.04618C24.0299 2.00317 23.9771 1.96993 23.9192 1.94861C23.8613 1.92729 23.7996 1.91835 23.738 1.92239C23.6764 1.92643 23.6164 1.94335 23.5617 1.97205L13.081 7.50201C12.9858 7.55217 12.9123 7.63555 12.8745 7.73632C12.8367 7.8371 12.8372 7.94824 12.8759 8.04866L13.0916 8.61293L7.0414 11.9307C6.94619 11.9828 6.87357 12.0682 6.8375 12.1706C6.80143 12.273 6.80445 12.385 6.84598 12.4853L7.04669 12.9686L0.621481 16.039C0.519748 16.0877 0.440568 16.1735 0.400274 16.2788C0.35998 16.3841 0.361647 16.5009 0.404931 16.605L1.7236 19.7829C1.76674 19.8871 1.84824 19.9707 1.95127 20.0166C2.0543 20.0625 2.171 20.067 2.2773 20.0294L8.98948 17.6517L9.19018 18.135C9.23162 18.235 9.30849 18.3163 9.4061 18.3633C9.50371 18.4102 9.6152 18.4195 9.71923 18.3894L16.1242 16.5434L16.3161 17.0443C16.3555 17.1485 16.4332 17.2338 16.5333 17.2827C16.6334 17.3316 16.7484 17.3405 16.8548 17.3075L28.2985 13.7864C28.3568 13.7687 28.4107 13.7391 28.4568 13.6994C28.503 13.6597 28.5404 13.6109 28.5666 13.556C28.5929 13.5011 28.6074 13.4414 28.6093 13.3805C28.6112 13.3197 28.6004 13.2592 28.5776 13.2027L24.1762 2.19828ZM2.37677 19.0602L1.37853 16.6535L7.38472 13.7828L8.65145 16.8374L2.37677 19.0602ZM9.85128 17.4351L9.64177 16.9299L8.0194 13.017L7.80989 12.5126L13.3874 9.4536L15.4772 14.8533L15.8073 15.7168L9.85128 17.4351ZM16.9895 16.3454L16.8108 15.8779C16.8082 15.8682 16.8099 15.8568 16.8055 15.8471L16.2615 14.4413L13.8372 8.09796L23.5406 2.9791L27.5829 13.0848L16.9895 16.3454Z" fill="#1D4A2D"/>
<path d="M25.4966 0.437705C25.4533 0.32926 25.3687 0.242461 25.2614 0.196402C25.1541 0.150343 25.0328 0.148798 24.9244 0.192106C24.816 0.235414 24.7292 0.320028 24.6831 0.427333C24.637 0.534639 24.6355 0.655846 24.6788 0.764291L29.9605 13.9686C30.0042 14.077 30.089 14.1636 30.1964 14.2097C30.3037 14.2557 30.425 14.2573 30.5336 14.2142C30.6419 14.1707 30.7286 14.0861 30.7746 13.9788C30.8206 13.8716 30.8223 13.7505 30.7792 13.642L25.4966 0.437705Z" fill="#1D4A2D"/>
<path d="M15.8451 18.6473H13.2043C12.2007 18.6473 11.4437 19.4043 11.4437 20.4078V21.5654L6.2685 27.6033C6.22808 27.6467 6.19684 27.6978 6.17666 27.7536C6.15648 27.8093 6.14778 27.8686 6.15107 27.9278C6.15436 27.987 6.16959 28.0449 6.19583 28.0981C6.22207 28.1513 6.25878 28.1986 6.30377 28.2372C6.34875 28.2759 6.40108 28.305 6.45761 28.3229C6.51414 28.3408 6.5737 28.3471 6.63273 28.3415C6.69176 28.3358 6.74902 28.3182 6.8011 28.2898C6.85317 28.2615 6.89897 28.2229 6.93576 28.1764L12.0863 22.1684H14.0846V27.8903C14.0846 28.007 14.1309 28.119 14.2135 28.2015C14.296 28.284 14.408 28.3304 14.5247 28.3304C14.6414 28.3304 14.7534 28.284 14.8359 28.2015C14.9185 28.119 14.9648 28.007 14.9648 27.8903V22.1684H16.9631L22.1128 28.1764C22.1502 28.2205 22.196 28.2568 22.2476 28.2832C22.2991 28.3095 22.3554 28.3253 22.4131 28.3298C22.4709 28.3342 22.5289 28.3271 22.5839 28.3089C22.6388 28.2908 22.6896 28.2619 22.7334 28.2239C22.822 28.1479 22.8767 28.0398 22.8857 27.9235C22.8946 27.8071 22.8569 27.6919 22.7809 27.6033L17.6057 21.5654V20.4739C17.6057 19.4501 16.8328 18.6473 15.8451 18.6473ZM16.7254 21.2881H12.324V20.4078C12.324 19.8894 12.6858 19.5276 13.2043 19.5276H15.8451C16.3469 19.5276 16.7254 19.9343 16.7254 20.4739V21.2881Z" fill="#1D4A2D"/>
</g>
<defs>
<clipPath id="clip0_201_294">
<rect width="30.81" height="28.1691" fill="white" transform="translate(0 0.161316)"/>
</clipPath>
</defs>
</svg>
